<svg width="28" height="28" viewBox="0 0 28 28" fill="none" xmlns="http://www.w3.org/2000/svg">
<path d="M28 14.0001C28 16.5357 28 20.5858 28 24.0005C28 26.2097 26.2089 28.0001 23.9998 28.0001C20.4112 28.0001 16.9732 28.0001 14 28.0001C11.4842 28.0001 7.28463 28.0001 3.9994 28.0001C1.79026 28.0001 2.02945e-06 26.2105 9.75465e-06 24.0013C2.1275e-05 20.7069 3.8892e-05 16.6366 3.8892e-05 14.0001C3.8892e-05 11.519 9.3418e-05 7.35917 0.000119521 3.99897C0.000136682 1.78982 1.79086 7.81421e-05 4.00001 8.1555e-05C7.30668 8.66633e-05 11.211 9.4799e-05 14 9.4799e-05C16.939 9.4799e-05 20.7588 5.32752e-05 24.0006 6.23255e-05C26.2097 6.84926e-05 28 1.79035 28 3.99944C28 7.5551 28 11.5691 28 14.0001ZM2.80004 14.0001C2.80004 15.7998 2.80004 18.6875 2.80004 21.2008C2.80004 23.41 4.59071 25.2001 6.79985 25.2001C9.31136 25.2001 11.9311 25.2001 14 25.2001C15.9445 25.2001 18.6588 25.2001 21.2003 25.2001C23.4095 25.2001 25.2 23.4099 25.2 21.2007C25.2 18.7265 25.2 15.9137 25.2 14.0001C25.2 12.2976 25.2 9.35698 25.2 6.79936C25.2 4.59022 23.4094 2.80009 21.2003 2.80009C18.7488 2.80009 16.153 2.80009 14 2.80009C11.9595 2.80009 9.24475 2.80009 6.7997 2.80009C4.59056 2.80009 2.80004 4.5904 2.80004 6.79954C2.80004 9.33904 2.80004 12.2247 2.80004 14.0001Z" fill="#FF6347"/>
</svg>
