<svg width="28" height="28" viewBox="0 0 28 28" fill="none" xmlns="http://www.w3.org/2000/svg">
<g clip-path="url(#clip0_174_893)">
<path d="M3.96151 0H23.2604C24.351 0 25.3417 0.445487 26.059 1.1632C26.7757 1.88448 27.2222 2.87477 27.2222 3.96151V23.2604C27.2222 24.351 26.7767 25.3417 26.059 26.059C25.3417 26.7767 24.351 27.2222 23.2604 27.2222H3.96151C2.87477 27.2222 1.88448 26.7757 1.16498 26.0572C0.445487 25.3417 0 24.351 0 23.2604V3.96151C0 2.87584 0.445487 1.88591 1.1632 1.16713L1.16713 1.1632C1.88591 0.445487 2.87584 0 3.96151 0V0ZM23.2604 1.98701H3.96151C3.41707 1.98701 2.92335 2.20814 2.56789 2.56396L2.56396 2.56789C2.20814 2.92335 1.98701 3.41707 1.98701 3.96151V23.2604C1.98701 23.8023 2.20993 24.2964 2.56789 24.6543V24.6583C2.92335 25.0141 3.41707 25.2352 3.96151 25.2352H23.2604C23.8023 25.2352 24.2964 25.0123 24.6543 24.6543C25.0123 24.2964 25.2352 23.8023 25.2352 23.2604V3.96151C25.2352 3.41707 25.0141 2.92335 24.6583 2.56789H24.6543C24.2964 2.20993 23.8023 1.98701 23.2604 1.98701V1.98701Z" fill="#FF6347"/>
</g>
<defs>
<clipPath id="clip0_174_893">
<rect width="28" height="28" fill="white"/>
</clipPath>
</defs>
</svg>
