<svg width="29" height="29" viewBox="0 0 29 29" fill="none" xmlns="http://www.w3.org/2000/svg">
<path d="M28.0915 1.32851C28.5325 1.76948 28.5325 2.48442 28.0915 2.92539L2.39538 28.6215C1.95442 29.0625 1.23947 29.0625 0.798506 28.6215C0.357541 28.1805 0.357541 27.4656 0.798506 27.0246L26.4946 1.32851C26.9356 0.88755 27.6505 0.88755 28.0915 1.32851Z" fill="#FF4242"/>
<path d="M0.798497 1.32847C1.23946 0.8875 1.95441 0.887501 2.39537 1.32847L28.0915 27.0246C28.5325 27.4655 28.5325 28.1805 28.0915 28.6215C27.6505 29.0624 26.9356 29.0624 26.4946 28.6215L0.798497 2.92534C0.357532 2.48438 0.357532 1.76943 0.798497 1.32847Z" fill="#FF4242"/>
</svg>
