<svg width="19" height="54" viewBox="0 0 19 54" fill="none" xmlns="http://www.w3.org/2000/svg">
<rect x="0.729727" y="0.729727" width="16.7837" height="52.5404" rx="5.10809" stroke="black" stroke-width="1.45945"/>
<path d="M9.75044 9.85304V18.2979H8.08347V11.7747L6.0808 12.4114V11.0975L9.57101 9.85304H9.75044Z" fill="black"/>
<path d="M5.16324 38.7141H6.05461C6.34015 38.7141 6.57554 38.6659 6.76075 38.5694C6.94597 38.4691 7.08296 38.3302 7.17171 38.1527C7.26432 37.9713 7.31062 37.761 7.31062 37.5218C7.31062 37.3057 7.26818 37.1147 7.18328 36.9488C7.10225 36.779 6.97684 36.6478 6.80706 36.5552C6.63728 36.4587 6.42312 36.4105 6.16458 36.4105C5.96007 36.4105 5.77099 36.451 5.59735 36.532C5.42371 36.6131 5.28479 36.7269 5.18061 36.8735C5.07642 37.0202 5.02433 37.1977 5.02433 37.406H3.35158C3.35158 36.943 3.47505 36.5397 3.72201 36.1963C3.97283 35.8529 4.30854 35.5847 4.72914 35.3918C5.14974 35.1988 5.61279 35.1024 6.11828 35.1024C6.68937 35.1024 7.18907 35.195 7.61739 35.3802C8.04571 35.5616 8.37949 35.8297 8.61873 36.1847C8.85797 36.5397 8.97759 36.9796 8.97759 37.5044C8.97759 37.7707 8.91585 38.0292 8.79237 38.28C8.66889 38.527 8.49139 38.7508 8.25987 38.9514C8.0322 39.1482 7.75437 39.3064 7.42638 39.4261C7.09839 39.5418 6.72988 39.5997 6.32086 39.5997H5.16324V38.7141ZM5.16324 39.9817V39.1193H6.32086C6.78005 39.1193 7.18328 39.1714 7.53057 39.2756C7.87785 39.3798 8.16919 39.5303 8.40457 39.727C8.63995 39.92 8.81745 40.1496 8.93707 40.4158C9.05669 40.6782 9.1165 40.9696 9.1165 41.2898C9.1165 41.6834 9.04126 42.0346 8.89077 42.3433C8.74028 42.6481 8.52805 42.9066 8.25408 43.1189C7.98397 43.3311 7.66755 43.4932 7.30483 43.6051C6.94211 43.7131 6.5466 43.7671 6.11828 43.7671C5.76328 43.7671 5.41406 43.7189 5.07064 43.6224C4.73107 43.5221 4.42237 43.3735 4.14454 43.1767C3.87057 42.9761 3.65063 42.7253 3.4847 42.4243C3.32264 42.1195 3.2416 41.7587 3.2416 41.3419H4.91436C4.91436 41.558 4.96838 41.7509 5.07642 41.9207C5.18447 42.0905 5.33303 42.2236 5.52211 42.3201C5.71504 42.4166 5.9292 42.4648 6.16458 42.4648C6.43083 42.4648 6.6585 42.4166 6.84758 42.3201C7.04051 42.2198 7.18714 42.0809 7.28747 41.9034C7.39166 41.722 7.44375 41.5117 7.44375 41.2725C7.44375 40.9638 7.3878 40.7168 7.27589 40.5316C7.16399 40.3425 7.00385 40.2036 6.79548 40.1149C6.58711 40.0261 6.34015 39.9817 6.05461 39.9817H5.16324ZM14.3258 35.2066V43.6514H12.6588V37.1282L10.6561 37.7649V36.451L14.1463 35.2066H14.3258Z" fill="black"/>
<path d="M8.74407 30.6288C8.89998 30.7847 9.15276 30.7847 9.30866 30.6288L11.8493 28.0881C12.0052 27.9322 12.0052 27.6794 11.8493 27.5235C11.6934 27.3676 11.4406 27.3676 11.2847 27.5235L9.02637 29.7819L6.76799 27.5235C6.61209 27.3676 6.35931 27.3676 6.2034 27.5235C6.04749 27.6794 6.04749 27.9322 6.2034 28.0881L8.74407 30.6288ZM8.62714 23.4316V30.3465H9.42559V23.4316H8.62714Z" fill="black"/>
</svg>
