<svg width="29" height="29" viewBox="0 0 29 29" fill="none" xmlns="http://www.w3.org/2000/svg">
<g clip-path="url(#clip0_51_812)">
<path d="M28.0915 1.32828C28.5325 1.76925 28.5325 2.48419 28.0915 2.92516L2.39537 28.6213C1.95441 29.0623 1.23946 29.0623 0.798497 28.6213C0.357532 28.1803 0.357532 27.4654 0.798497 27.0244L26.4946 1.32828C26.9356 0.887319 27.6505 0.887319 28.0915 1.32828Z" fill="black"/>
<path d="M0.798497 1.32829C1.23946 0.887316 1.95441 0.887317 2.39537 1.32829L28.0915 27.0244C28.5325 27.4653 28.5325 28.1803 28.0915 28.6213C27.6505 29.0622 26.9356 29.0622 26.4946 28.6213L0.798497 2.92516C0.357532 2.4842 0.357532 1.76925 0.798497 1.32829Z" fill="black"/>
</g>
<defs>
<clipPath id="clip0_51_812">
<rect width="29" height="29" fill="white"/>
</clipPath>
</defs>
</svg>
