<svg width="28" height="28" viewBox="0 0 28 28" fill="none" xmlns="http://www.w3.org/2000/svg">
<g clip-path="url(#clip0_174_928)">
<path d="M11.86 13.1716L11.4461 12.7574L8.73461 10.0459L8.73492 10.0456L8.73461 10.0453C8.3736 9.68395 8.37299 9.09701 8.73461 8.73539C9.09623 8.37377 9.68379 8.37315 10.0454 8.73477H10.0457L12.7573 11.4463L13.1714 11.8602L19.2454 17.9342L19.2451 17.9345C19.6067 18.2961 19.6061 18.8837 19.2445 19.2453C18.8829 19.6069 18.2956 19.6066 17.9346 19.2453L17.9343 19.245L17.934 19.2456L11.86 13.1716Z" fill="black"/>
<path d="M13.1713 16.1199L12.7572 16.5337L10.0456 19.2453L10.0453 19.245L10.045 19.2453C9.68371 19.6063 9.09677 19.6069 8.73515 19.2453C8.37353 18.8837 8.37291 18.2961 8.73453 17.9345V17.9342L11.4461 15.2226L11.8599 14.8085L17.9339 8.73447L17.9342 8.73477C18.2959 8.37315 18.8834 8.37377 19.245 8.73539C19.6067 9.09701 19.6064 9.68426 19.245 10.0453L19.2447 10.0456L19.2453 10.0459L13.1713 16.1199Z" fill="black"/>
<path d="M14 -0.0112305C17.869 -0.0112305 21.3721 1.55734 23.9075 4.09271C26.4428 6.62808 28.0114 10.1312 28.0114 14.0002C28.0114 17.8692 26.4428 21.3723 23.9075 23.9077C21.3721 26.4431 17.869 28.0116 14 28.0116C10.1309 28.0116 6.62783 26.4431 4.09246 23.9077C1.5571 21.3723 -0.0114746 17.8692 -0.0114746 14.0002C-0.0114746 10.1312 1.5571 6.62808 4.09246 4.09271C6.62783 1.55734 10.1309 -0.0112305 14 -0.0112305V-0.0112305ZM22.5964 5.40382C20.3966 3.20411 17.3572 1.84324 14 1.84324C10.6428 1.84324 7.60328 3.20411 5.40357 5.40382C3.20386 7.60353 1.84299 10.643 1.84299 14.0002C1.84299 17.3574 3.20386 20.3969 5.40357 22.5966C7.60328 24.7963 10.6428 26.1572 14 26.1572C17.3572 26.1572 20.3966 24.7963 22.5964 22.5966C24.7961 20.3969 26.1569 17.3574 26.1569 14.0002C26.1569 10.643 24.7961 7.60353 22.5964 5.40382V5.40382Z" fill="black"/>
</g>
<defs>
<clipPath id="clip0_174_928">
<rect width="28" height="28" fill="white"/>
</clipPath>
</defs>
</svg>
