<svg width="34" height="34" viewBox="0 0 34 34" fill="none" xmlns="http://www.w3.org/2000/svg">
<path d="M17.6272 3.24057L20.9138 6.63074C20.9836 6.6983 21.0406 6.77936 21.08 6.86869C21.1213 6.96139 21.145 7.06535 21.145 7.17306C21.145 7.38173 21.0598 7.57089 20.9235 7.70713C20.7869 7.84374 20.5978 7.92856 20.3891 7.92856C20.2784 7.92856 20.171 7.90379 20.0735 7.85838C19.9781 7.81447 19.8929 7.75029 19.8246 7.67335L17.8839 5.67483L17.8287 9.42116C17.8351 9.524 17.8193 9.63021 17.7822 9.73079C17.745 9.83063 17.6872 9.92333 17.6095 10.001C17.4605 10.1478 17.2676 10.2221 17.0751 10.2221C16.8833 10.2221 16.69 10.1478 16.5425 10.001C16.4705 9.93046 16.4146 9.84414 16.377 9.75144C16.3388 9.65798 16.3204 9.5574 16.3211 9.45945C16.3211 8.1605 16.3523 6.85142 16.3755 5.54797C15.6636 6.25731 14.9114 6.99329 14.2963 7.70075C14.2258 7.7713 14.1421 7.8291 14.0509 7.86776C13.9582 7.90679 13.8587 7.92856 13.7555 7.92856C13.5476 7.92856 13.3577 7.84336 13.2214 7.70713C13.0852 7.57089 13 7.38098 13 7.17306C13 7.06385 13.0244 6.95801 13.0679 6.86156C13.1092 6.7696 13.17 6.68704 13.2436 6.61873L16.5166 3.24808C16.5857 3.17227 16.672 3.10922 16.7689 3.06605C16.8661 3.02364 16.9689 3 17.0751 3C17.1806 3 17.2815 3.02289 17.3735 3.06193C17.4714 3.10509 17.5578 3.16589 17.6272 3.24057V3.24057Z" fill="#555555"/>
<path d="M16.5178 30.9816L13.2313 27.5914C13.1614 27.5239 13.1044 27.4428 13.065 27.3535C13.0237 27.2608 13.0001 27.1568 13.0001 27.0491C13.0001 26.8404 13.0853 26.6513 13.2215 26.515C13.3581 26.3784 13.5473 26.2936 13.7559 26.2936C13.8666 26.2936 13.974 26.3184 14.0716 26.3638C14.1669 26.4077 14.2521 26.4719 14.3204 26.5488L16.2611 28.5473L16.3163 24.801C16.3099 24.6982 16.3257 24.592 16.3628 24.4914C16.4 24.3915 16.4578 24.2988 16.5355 24.2212C16.6845 24.0744 16.8774 24.0001 17.0699 24.0001C17.2617 24.0001 17.455 24.0744 17.6025 24.2212C17.6745 24.2917 17.7305 24.378 17.768 24.4707C17.8063 24.5642 17.8247 24.6648 17.8239 24.7627C17.8239 26.0617 17.7928 27.3707 17.7695 28.6742C18.4815 27.9649 19.2336 27.2289 19.8487 26.5214C19.9193 26.4509 20.003 26.3931 20.0942 26.3544C20.1869 26.3154 20.2863 26.2936 20.3895 26.2936C20.5974 26.2936 20.7873 26.3788 20.9236 26.515C21.0598 26.6513 21.145 26.8412 21.145 27.0491C21.145 27.1583 21.1206 27.2642 21.0771 27.3606C21.0358 27.4526 20.975 27.5351 20.9014 27.6034L17.6284 30.9741C17.5593 31.0499 17.473 31.113 17.3762 31.1561C17.279 31.1985 17.1761 31.2222 17.0699 31.2222C16.9645 31.2222 16.8635 31.1993 16.7715 31.1602C16.6736 31.1171 16.5873 31.0563 16.5178 30.9816V30.9816Z" fill="#555555"/>
<path d="M3.202 16.5564L6.59217 13.2698C6.65972 13.2 6.74079 13.143 6.83011 13.1036C6.92281 13.0623 7.02677 13.0386 7.13449 13.0386C7.34316 13.0386 7.53231 13.1238 7.66855 13.2601C7.80516 13.3967 7.88998 13.5858 7.88998 13.7945C7.88998 13.9052 7.86521 14.0126 7.8198 14.1101C7.77589 14.2055 7.71171 14.2907 7.63477 14.359L5.63625 16.2997L9.38259 16.3549C9.48542 16.3485 9.59164 16.3642 9.69222 16.4014C9.79205 16.4386 9.88475 16.4964 9.96244 16.574C10.1092 16.723 10.1835 16.916 10.1835 17.1085C10.1835 17.3003 10.1092 17.4936 9.96244 17.6411C9.89188 17.7131 9.80556 17.769 9.71286 17.8066C9.61941 17.8448 9.51883 17.8632 9.42087 17.8625C8.12193 17.8625 6.81285 17.8313 5.5094 17.8081C6.21873 18.52 6.95471 19.2721 7.66217 19.8873C7.73273 19.9578 7.79053 20.0415 7.82918 20.1327C7.86822 20.2254 7.88999 20.3249 7.88999 20.4281C7.88999 20.636 7.80479 20.8259 7.66855 20.9622C7.53232 21.0984 7.34241 21.1836 7.13449 21.1836C7.02527 21.1836 6.91944 21.1592 6.82298 21.1157C6.73103 21.0744 6.64846 21.0136 6.58016 20.94L3.2095 17.6669C3.13369 17.5979 3.07064 17.5116 3.02748 17.4147C2.98507 17.3175 2.96143 17.2147 2.96143 17.1085C2.96143 17.003 2.98432 16.9021 3.02335 16.8101C3.06651 16.7122 3.12731 16.6258 3.202 16.5564V16.5564Z" fill="#555555"/>
<path d="M30.943 17.6658L27.5529 20.9523C27.4853 21.0221 27.4042 21.0792 27.3149 21.1186C27.2222 21.1599 27.1182 21.1835 27.0105 21.1835C26.8019 21.1835 26.6127 21.0983 26.4765 20.9621C26.3399 20.8255 26.255 20.6363 26.255 20.4277C26.255 20.3169 26.2798 20.2096 26.3252 20.112C26.3691 20.0167 26.4333 19.9315 26.5102 19.8632L28.5088 17.9225L24.7624 17.8673C24.6596 17.8737 24.5534 17.8579 24.4528 17.8208C24.353 17.7836 24.2603 17.7258 24.1826 17.6481C24.0358 17.4991 23.9615 17.3062 23.9615 17.1137C23.9615 16.9219 24.0358 16.7286 24.1826 16.5811C24.2531 16.5091 24.3395 16.4531 24.4322 16.4156C24.5256 16.3773 24.6262 16.3589 24.7241 16.3597C26.0231 16.3597 27.3322 16.3908 28.6356 16.4141C27.9263 15.7021 27.1903 14.95 26.4828 14.3349C26.4123 14.2643 26.3545 14.1806 26.3158 14.0894C26.2768 13.9967 26.255 13.8973 26.255 13.7941C26.255 13.5862 26.3402 13.3962 26.4765 13.26C26.6127 13.1238 26.8026 13.0386 27.0105 13.0386C27.1197 13.0386 27.2256 13.063 27.322 13.1065C27.414 13.1478 27.4966 13.2086 27.5649 13.2822L30.9355 16.5552C31.0113 16.6243 31.0744 16.7106 31.1175 16.8074C31.1599 16.9046 31.1836 17.0075 31.1836 17.1137C31.1836 17.2191 31.1607 17.3201 31.1217 17.4121C31.0785 17.51 31.0177 17.5963 30.943 17.6658V17.6658Z" fill="#555555"/>
<path d="M34 17C34 26.3888 26.3888 34 17 34C7.61116 34 0 26.3888 0 17C0 7.61116 7.61116 0 17 0C26.3888 0 34 7.61116 34 17ZM1.96088 17C1.96088 25.3059 8.69412 32.0391 17 32.0391C25.3059 32.0391 32.0391 25.3059 32.0391 17C32.0391 8.69412 25.3059 1.96088 17 1.96088C8.69412 1.96088 1.96088 8.69412 1.96088 17Z" fill="#555555"/>
</svg>
