<svg width="32" height="28" viewBox="0 0 32 28" fill="none" xmlns="http://www.w3.org/2000/svg">
<path d="M16 28C15.5444 28 15.1052 27.8377 14.7629 27.5428C13.4702 26.4311 12.2239 25.3864 11.1243 24.4648L11.1187 24.46C7.89478 21.758 5.11084 19.4246 3.17383 17.126C1.00854 14.5563 0 12.1199 0 9.45827C0 6.87226 0.901611 4.4865 2.53857 2.74016C4.19507 0.973176 6.46802 0 8.93945 0C10.7866 0 12.4783 0.574349 13.9673 1.70696C14.7188 2.27867 15.3999 2.97836 16 3.7945C16.6003 2.97836 17.2812 2.27867 18.033 1.70696C19.522 0.574349 21.2136 0 23.0608 0C25.532 0 27.8052 0.973176 29.4617 2.74016C31.0986 4.4865 32 6.87226 32 9.45827C32 12.1199 30.9917 14.5563 28.8264 17.1258C26.8894 19.4246 24.1057 21.7578 20.8823 24.4595C19.7808 25.3825 18.5325 26.4289 17.2368 27.5433C16.8948 27.8377 16.4553 28 16 28Z" fill="#FFBF1C"/>
</svg>
