<svg width="28" height="28" viewBox="0 0 28 28" fill="none" xmlns="http://www.w3.org/2000/svg">
<g clip-path="url(#clip0_174_873)">
<path d="M23.4362 26.5017L13.6117 16.6815L3.76326 26.5296L3.68717 26.5964C2.90513 27.257 2.06701 27.3413 1.38358 27.0916C1.05848 26.9733 0.776608 26.7804 0.555467 26.5374C0.337541 26.2981 0.174633 26.0055 0.0835327 25.6847C-0.118674 24.972 0.0299444 24.1278 0.721233 23.4365L10.5418 13.6116L0.693367 3.7635L0.626561 3.68741C-0.033647 2.90538 -0.118316 2.06726 0.131405 1.38383C0.249656 1.05873 0.442574 0.776852 0.685508 0.555711C0.925226 0.337428 1.21746 0.174877 1.53828 0.0837768C2.251 -0.11843 3.09519 0.0301886 3.78648 0.721477L13.6117 10.5417L23.4595 0.693611L23.5355 0.626805C24.3176 -0.0337601 25.1557 -0.118072 25.8391 0.131649C26.1646 0.2499 26.4465 0.443176 26.6672 0.685752C26.8855 0.92547 27.0481 1.2177 27.1392 1.53852C27.3414 2.25124 27.1928 3.09544 26.5015 3.78673L16.6816 13.6116L26.5293 23.4597L26.5962 23.5358C27.2567 24.3178 27.341 25.1559 27.0913 25.8394C26.9731 26.1648 26.7801 26.4463 26.5372 26.6675C26.2975 26.8858 26.0053 27.0483 25.6844 27.1394C24.9717 27.3416 24.1275 27.193 23.4362 26.5017V26.5017Z" fill="white"/>
<path d="M23.8009 25.5562L13.6116 15.3708L3.37912 25.6008C2.89004 26.0138 2.38881 26.0749 1.99226 25.9299C1.81327 25.8648 1.6568 25.7573 1.53283 25.6212C1.40993 25.4861 1.31812 25.3215 1.26703 25.141C1.14914 24.7256 1.24381 24.2243 1.6668 23.8013L11.8525 13.6117L1.62214 3.37956C1.20915 2.89048 1.14806 2.38925 1.29311 1.99269C1.35813 1.81371 1.46602 1.65687 1.60178 1.53326C1.73682 1.41037 1.90187 1.31855 2.08193 1.26747C2.49777 1.14957 2.999 1.2446 3.42164 1.66723L13.6116 11.8526L23.8434 1.62258C24.3325 1.20959 24.8337 1.1485 25.2303 1.29354C25.4096 1.35857 25.5661 1.46646 25.6897 1.60221C25.8126 1.73726 25.9044 1.90231 25.9555 2.08236C26.0734 2.49821 25.9787 2.99908 25.5557 3.42207L15.3707 13.6117L25.6004 23.8438C26.0134 24.3329 26.0745 24.8342 25.9294 25.2307C25.8644 25.4101 25.7565 25.5665 25.6208 25.6901C25.4857 25.813 25.321 25.9049 25.1406 25.9559C24.7251 26.0738 24.2239 25.9792 23.8009 25.5562V25.5562ZM22.2333 23.0922L24.2489 25.1078C24.4893 25.3482 24.7566 25.4072 24.9695 25.3468C25.0541 25.3232 25.132 25.2797 25.1949 25.2225C25.2571 25.1657 25.306 25.0946 25.335 25.0153C25.4071 24.8181 25.3635 24.5512 25.1285 24.2658L14.4744 13.6113C18.0219 10.0688 21.5627 6.51912 25.1074 2.97407C25.3478 2.73364 25.4068 2.46641 25.3464 2.25349C25.3224 2.16846 25.2792 2.09094 25.2221 2.02806C25.1653 1.9659 25.0942 1.91695 25.0149 1.88802C24.8176 1.81585 24.5508 1.85944 24.2653 2.09451L13.6116 12.7489L2.97364 2.11559C2.73321 1.87516 2.46598 1.81621 2.25305 1.87659C2.16803 1.90052 2.0905 1.94375 2.02763 2.00091C1.96546 2.05771 1.91652 2.12845 1.88758 2.20812C1.81542 2.40532 1.859 2.67219 2.09408 2.95764L12.7485 13.6113L2.11515 24.2493C1.87472 24.4898 1.81577 24.757 1.87615 24.9699C1.89973 25.0546 1.94331 25.1325 2.00047 25.1953C2.05692 25.2571 2.12801 25.3064 2.20768 25.3354C2.40489 25.4076 2.67176 25.364 2.9572 25.1289L13.6116 14.4745L22.0071 22.8703L22.0093 22.8678L22.2333 23.0922V23.0922Z" fill="white"/>
<path d="M24.0249 25.3318L22.0092 23.3162L22.0071 23.3184L13.6116 14.9229L3.17475 25.3594C2.04868 26.31 0.954406 24.9621 1.89113 24.0254L3.90676 22.0097L3.90462 22.0076L12.3005 13.6117L1.86362 3.17523C0.912964 2.04917 2.26089 0.954894 3.19761 1.89162L5.38687 4.08052L5.38901 4.07802L13.6116 12.3006L24.0477 1.86411C25.1738 0.913452 26.2681 2.26138 25.3314 3.1981L23.1425 5.38736L23.145 5.3895L14.9227 13.6117L25.3589 24.0482C26.3095 25.1743 24.9616 26.2686 24.0249 25.3318V25.3318Z" fill="#6FDA44"/>
</g>
<defs>
<clipPath id="clip0_174_873">
<rect width="28" height="28" fill="white"/>
</clipPath>
</defs>
</svg>
