<svg width="22" height="32" viewBox="0 0 22 32" fill="none" xmlns="http://www.w3.org/2000/svg">
<path d="M21.6691 21.5484C22.1103 21.1125 22.1103 20.3869 21.6691 19.9357C21.2429 19.4998 20.5335 19.4998 20.1082 19.9357L12.1128 28.1131L12.1128 1.12899C12.1118 0.49997 11.623 -4.53593e-07 11.0079 -4.8048e-07C10.3929 -5.07362e-07 9.8882 0.499969 9.8882 1.12899L9.8882 28.1131L1.9077 19.9357C1.4665 19.4998 0.756099 19.4998 0.330899 19.9357C-0.110301 20.3869 -0.110301 21.1135 0.330899 21.5484L10.219 31.6616C10.6453 32.1128 11.3547 32.1128 11.78 31.6616L21.6691 21.5484Z" fill="#6FDA44"/>
</svg>
