<svg width="28" height="28" viewBox="0 0 28 28" fill="none" xmlns="http://www.w3.org/2000/svg">
<path d="M0.906738 26.3342V1.49232C0.906738 0.629214 1.81307 0.293402 2.48756 0.649934L25.7936 13.0668C26.4813 13.4304 26.4949 14.3886 25.7936 14.7598L2.58544 26.4893L0.906738 26.3342V26.3342ZM2.76371 3.68796L2.04707 23.5913L2.76371 24.7505L3.3871 25.4275L23.1554 14.8073C23.8956 14.415 23.9413 13.6709 23.2007 13.28L3.39532 3.31643C2.82587 3.01598 2.76371 2.97311 2.76371 3.68796V3.68796Z" fill="#FFBF1C"/>
<path d="M2.73656 4.43858L1.64374 1.75244L0.906738 26.3346C0.906738 27.1977 1.81307 27.5335 2.48756 27.177L25.7679 14.8666C26.4556 14.5033 26.4949 13.4383 25.7936 13.0672L3.69076 2.12969L3.43462 2.38763L4.35489 3.10962L22.6742 13.6041C23.4147 13.9964 23.409 13.9285 22.6684 14.3197L3.39532 24.5105C2.82587 24.811 2.76371 24.8538 2.76371 24.139L2.73656 4.43858V4.43858Z" fill="#FFBF1C"/>
</svg>
