<svg width="19" height="54" viewBox="0 0 19 54" fill="none" xmlns="http://www.w3.org/2000/svg">
<rect x="0.729727" y="0.729727" width="16.7837" height="52.5404" rx="5.10809" stroke="black" stroke-width="1.45945"/>
<path d="M9.28739 11.3116L6.99531 18.2979H5.14891L8.28027 9.87041H9.45525L9.28739 11.3116ZM11.1917 18.2979L8.8938 11.3116L8.70858 9.87041H9.89514L13.0439 18.2979H11.1917ZM11.0875 15.1607V16.5209H6.63645V15.1607H11.0875Z" fill="black"/>
<path d="M9.92861 39.9528H7.76387L7.75229 38.7604H9.56975C9.89002 38.7604 10.1524 38.7199 10.3569 38.6389C10.5614 38.554 10.7139 38.4324 10.8142 38.2742C10.9184 38.1122 10.9705 37.9154 10.9705 37.6839C10.9705 37.4215 10.9203 37.2092 10.82 37.0472C10.7235 36.8851 10.5711 36.7674 10.3627 36.6941C10.1582 36.6208 9.89388 36.5841 9.56975 36.5841H8.36583V43.6514H6.6294V35.2239H9.56975C10.0598 35.2239 10.4978 35.2702 10.8836 35.3628C11.2734 35.4554 11.6033 35.5963 11.8734 35.7854C12.1435 35.9744 12.35 36.2137 12.4927 36.5031C12.6355 36.7886 12.7069 37.1282 12.7069 37.5218C12.7069 37.8691 12.6278 38.1893 12.4696 38.4826C12.3152 38.7759 12.0702 39.0151 11.7345 39.2003C11.4026 39.3856 10.9685 39.4878 10.4322 39.5071L9.92861 39.9528ZM9.85336 43.6514H7.28924L7.96645 42.297H9.85336C10.1582 42.297 10.4071 42.2487 10.6 42.1523C10.793 42.0519 10.9357 41.9169 11.0283 41.7471C11.121 41.5773 11.1673 41.3824 11.1673 41.1625C11.1673 40.9155 11.1248 40.7014 11.0399 40.52C10.9589 40.3387 10.8277 40.1997 10.6463 40.1033C10.465 40.0029 10.2257 39.9528 9.92861 39.9528H8.25585L8.26743 38.7604H10.3511L10.7505 39.2293C11.2637 39.2216 11.6766 39.3122 11.9892 39.5013C12.3056 39.6865 12.5352 39.9277 12.6779 40.2248C12.8246 40.5219 12.8979 40.8403 12.8979 41.1799C12.8979 41.7201 12.7802 42.1754 12.5448 42.5458C12.3094 42.9124 11.9641 43.1883 11.5088 43.3735C11.0573 43.5588 10.5055 43.6514 9.85336 43.6514Z" fill="black"/>
<path d="M8.74407 30.6288C8.89998 30.7847 9.15276 30.7847 9.30866 30.6288L11.8493 28.0881C12.0052 27.9322 12.0052 27.6794 11.8493 27.5235C11.6934 27.3676 11.4406 27.3676 11.2847 27.5235L9.02637 29.7819L6.76799 27.5235C6.61209 27.3676 6.35931 27.3676 6.2034 27.5235C6.04749 27.6794 6.04749 27.9322 6.2034 28.0881L8.74407 30.6288ZM8.62714 23.4316V30.3465H9.42559V23.4316H8.62714Z" fill="black"/>
</svg>
