<svg width="34" height="34" viewBox="0 0 34 34" fill="none" xmlns="http://www.w3.org/2000/svg">
<g clip-path="url(#clip0_208_796)">
<path d="M34 17C34 26.3888 26.3888 34 17 34C7.61116 34 0 26.3888 0 17C0 7.61116 7.61116 0 17 0C26.3888 0 34 7.61116 34 17ZM1.96088 17C1.96088 25.3059 8.69412 32.0391 17 32.0391C25.3059 32.0391 32.0391 25.3059 32.0391 17C32.0391 8.69412 25.3059 1.96088 17 1.96088C8.69412 1.96088 1.96088 8.69412 1.96088 17Z" fill="#A2A2A2"/>
<path d="M18 9C18 8.44772 17.5523 8 17 8C16.4477 8 16 8.44772 16 9V24C16 24.5523 16.4477 25 17 25C17.5523 25 18 24.5523 18 24V9Z" fill="#A1A1A1"/>
<path d="M24.5 17.5C25.0523 17.5 25.5 17.0523 25.5 16.5C25.5 15.9477 25.0523 15.5 24.5 15.5L9.5 15.5C8.94772 15.5 8.5 15.9477 8.5 16.5C8.5 17.0523 8.94772 17.5 9.5 17.5H24.5Z" fill="#A1A1A1"/>
</g>
<defs>
<clipPath id="clip0_208_796">
<rect width="34" height="34" fill="white"/>
</clipPath>
</defs>
</svg>
