<svg width="34" height="34" viewBox="0 0 34 34" fill="none" xmlns="http://www.w3.org/2000/svg">
<path d="M34 17C34 26.3888 26.3888 34 17 34C7.61116 34 0 26.3888 0 17C0 7.61116 7.61116 0 17 0C26.3888 0 34 7.61116 34 17ZM1.96088 17C1.96088 25.3059 8.69412 32.0391 17 32.0391C25.3059 32.0391 32.0391 25.3059 32.0391 17C32.0391 8.69412 25.3059 1.96088 17 1.96088C8.69412 1.96088 1.96088 8.69412 1.96088 17Z" fill="#555555"/>
<rect x="16" y="8" width="2" height="17" rx="1" fill="#555555"/>
<rect x="25.5" y="15.5" width="2" height="17" rx="1" transform="rotate(90 25.5 15.5)" fill="#555555"/>
</svg>
