<svg width="28" height="28" viewBox="0 0 28 28" fill="none" xmlns="http://www.w3.org/2000/svg">
<g clip-path="url(#clip0_174_896)">
<path d="M3.96151 0H23.2604C24.351 0 25.3417 0.445487 26.059 1.1632C26.7757 1.88448 27.2222 2.87477 27.2222 3.96151V23.2604C27.2222 24.351 26.7767 25.3417 26.059 26.059C25.3417 26.7767 24.351 27.2222 23.2604 27.2222H3.96151C2.87477 27.2222 1.88448 26.7757 1.16498 26.0572C0.445487 25.3417 0 24.351 0 23.2604V3.96151C0 2.87584 0.445487 1.88591 1.1632 1.16713L1.16713 1.1632C1.88591 0.445487 2.87584 0 3.96151 0V0Z" fill="#FF6347"/>
</g>
<defs>
<clipPath id="clip0_174_896">
<rect width="28" height="28" fill="white"/>
</clipPath>
</defs>
</svg>
