<svg width="28" height="28" viewBox="0 0 28 28" fill="none" xmlns="http://www.w3.org/2000/svg">
<g clip-path="url(#clip0_174_868)">
<path d="M25.3504 26.823L23.0783 24.5506L23.0758 24.5531L13.6116 15.0889L1.84636 26.8538C0.577059 27.9255 -0.656515 26.4061 0.39915 25.3501L2.6716 23.078L2.6691 23.0755L12.1336 13.611L0.368426 1.84611C-0.703315 0.576814 0.816057 -0.656759 1.87208 0.398905L4.33994 2.86641L4.34244 2.86391L13.6116 12.133L25.3761 0.368182C26.6454 -0.703559 27.8789 0.815813 26.8233 1.87183L24.3558 4.3397L24.3583 4.3422L15.0895 13.611L26.854 25.3758C27.9257 26.6451 26.4064 27.8787 25.3504 26.823V26.823Z" fill="black"/>
</g>
<defs>
<clipPath id="clip0_174_868">
<rect width="28" height="28" fill="white"/>
</clipPath>
</defs>
</svg>
