<svg width="28" height="28" viewBox="0 0 28 28" fill="none" xmlns="http://www.w3.org/2000/svg">
<g clip-path="url(#clip0_207_802)">
<path d="M11.8602 13.1716L11.4464 12.7574L8.73485 10.0459L8.73516 10.0456L8.73485 10.0453C8.37385 9.68395 8.37323 9.09701 8.73485 8.73539C9.09647 8.37377 9.68403 8.37315 10.0457 8.73477H10.046L12.7575 11.4463L13.1717 11.8602L19.2457 17.9342L19.2454 17.9345C19.607 18.2961 19.6064 18.8837 19.2447 19.2453C18.8831 19.6069 18.2959 19.6066 17.9349 19.2453L17.9346 19.245L17.9343 19.2456L11.8602 13.1716Z" fill="#555555"/>
<path d="M13.1716 16.1199L12.7574 16.5337L10.0459 19.2453L10.0456 19.245L10.0453 19.2453C9.68395 19.6063 9.09701 19.6069 8.73539 19.2453C8.37377 18.8837 8.37315 18.2961 8.73477 17.9345V17.9342L11.4463 15.2226L11.8602 14.8085L17.9342 8.73447L17.9345 8.73477C18.2961 8.37315 18.8837 8.37377 19.2453 8.73539C19.6069 9.09701 19.6066 9.68426 19.2453 10.0453L19.245 10.0456L19.2456 10.0459L13.1716 16.1199Z" fill="#555555"/>
<path d="M14.0002 -0.0112305C17.8692 -0.0112305 21.3723 1.55734 23.9077 4.09271C26.4431 6.62808 28.0116 10.1312 28.0116 14.0002C28.0116 17.8692 26.4431 21.3723 23.9077 23.9077C21.3723 26.4431 17.8692 28.0116 14.0002 28.0116C10.1312 28.0116 6.62808 26.4431 4.09271 23.9077C1.55734 21.3723 -0.0112305 17.8692 -0.0112305 14.0002C-0.0112305 10.1312 1.55734 6.62808 4.09271 4.09271C6.62808 1.55734 10.1312 -0.0112305 14.0002 -0.0112305V-0.0112305ZM22.5966 5.40382C20.3969 3.20411 17.3574 1.84324 14.0002 1.84324C10.643 1.84324 7.60353 3.20411 5.40382 5.40382C3.20411 7.60353 1.84324 10.643 1.84324 14.0002C1.84324 17.3574 3.20411 20.3969 5.40382 22.5966C7.60353 24.7963 10.643 26.1572 14.0002 26.1572C17.3574 26.1572 20.3969 24.7963 22.5966 22.5966C24.7963 20.3969 26.1572 17.3574 26.1572 14.0002C26.1572 10.643 24.7963 7.60353 22.5966 5.40382V5.40382Z" fill="#555555"/>
</g>
<defs>
<clipPath id="clip0_207_802">
<rect width="28" height="28" fill="white"/>
</clipPath>
</defs>
</svg>
