<svg width="34" height="34" viewBox="0 0 34 34" fill="none" xmlns="http://www.w3.org/2000/svg">
<g clip-path="url(#clip0_208_804)">
<path d="M14.4015 15.9939L13.899 15.4909L10.6064 12.1984L10.6068 12.198L10.6064 12.1977C10.168 11.7589 10.1673 11.0462 10.6064 10.6071C11.0455 10.1679 11.759 10.1672 12.1981 10.6063H12.1985L15.491 13.8989L15.994 14.4015L23.3696 21.777L23.3692 21.7774C23.8083 22.2165 23.8076 22.93 23.3684 23.3691C22.9293 23.8082 22.2162 23.8078 21.7779 23.3691L21.7775 23.3687L21.7772 23.3695L14.4015 15.9939Z" fill="#A1A1A1"/>
<path d="M15.9939 19.574L15.4909 20.0764L12.1984 23.3691L12.198 23.3687L12.1977 23.3691C11.7589 23.8074 11.0462 23.8082 10.6071 23.3691C10.1679 22.93 10.1672 22.2165 10.6063 21.7774V21.777L13.8989 18.4844L14.4015 17.9815L21.777 10.6059L21.7774 10.6063C22.2165 10.1672 22.93 10.1679 23.3691 10.6071C23.8082 11.0462 23.8078 11.7593 23.3691 12.1977L23.3687 12.198L23.3695 12.1984L15.9939 19.574Z" fill="#A1A1A1"/>
<path d="M17.0002 -0.0136719C21.6983 -0.0136719 25.952 1.89102 29.0307 4.96968C32.1094 8.04835 34.0141 12.3021 34.0141 17.0002C34.0141 21.6983 32.1094 25.952 29.0307 29.0307C25.952 32.1094 21.6983 34.0141 17.0002 34.0141C12.3021 34.0141 8.04835 32.1094 4.96968 29.0307C1.89102 25.952 -0.0136719 21.6983 -0.0136719 17.0002C-0.0136719 12.3021 1.89102 8.04835 4.96968 4.96968C8.04835 1.89102 12.3021 -0.0136719 17.0002 -0.0136719ZM27.4387 6.56175C24.7676 3.89067 21.0768 2.23819 17.0002 2.23819C12.9236 2.23819 9.23282 3.89067 6.56175 6.56175C3.89067 9.23282 2.23819 12.9236 2.23819 17.0002C2.23819 21.0768 3.89067 24.7676 6.56175 27.4387C9.23282 30.1098 12.9236 31.7623 17.0002 31.7623C21.0768 31.7623 24.7676 30.1098 27.4387 27.4387C30.1098 24.7676 31.7623 21.0768 31.7623 17.0002C31.7623 12.9236 30.1098 9.23282 27.4387 6.56175Z" fill="#A1A1A1"/>
</g>
<defs>
<clipPath id="clip0_208_804">
<rect width="34" height="34" fill="white"/>
</clipPath>
</defs>
</svg>
