<svg width="38" height="38" viewBox="0 0 38 38" fill="none" xmlns="http://www.w3.org/2000/svg">
<circle opacity="0.6" cx="19" cy="19" r="18.25" stroke="black" stroke-width="1.5"/>
<path d="M15.5873 6.15795C15.4462 6.29738 15.4462 6.52948 15.5873 6.6738C15.7237 6.81323 15.9506 6.81323 16.0866 6.6738L18.644 4.05813L18.644 12.6894C18.6444 12.8906 18.8007 13.0505 18.9975 13.0505C19.1942 13.0505 19.3556 12.8906 19.3556 12.6894L19.3556 4.05813L21.9083 6.6738C22.0494 6.81323 22.2767 6.81323 22.4127 6.6738C22.5538 6.52948 22.5538 6.29706 22.4127 6.15795L19.2498 2.92309C19.1135 2.77877 18.8865 2.77877 18.7505 2.92309L15.5873 6.15795Z" fill="#555555"/>
<path d="M22.4127 32.2258C22.5538 32.0864 22.5538 31.8543 22.4127 31.71C22.2763 31.5706 22.0494 31.5706 21.9134 31.71L19.356 34.3257L19.356 25.6944C19.3556 25.4932 19.1993 25.3333 19.0025 25.3333C18.8058 25.3333 18.6444 25.4932 18.6444 25.6944L18.6444 34.3257L16.0917 31.71C15.9506 31.5706 15.7233 31.5706 15.5873 31.71C15.4462 31.8543 15.4462 32.0867 15.5873 32.2258L18.7502 35.4607C18.8865 35.605 19.1135 35.605 19.2495 35.4607L22.4127 32.2258Z" fill="#555555"/>
</svg>
