<svg width="38" height="38" viewBox="0 0 38 38" fill="none" xmlns="http://www.w3.org/2000/svg">
<circle opacity="0.6" cx="19" cy="19" r="18.25" stroke="black" stroke-width="1.5"/>
<path d="M15.5873 6.15795C15.4462 6.29738 15.4462 6.52948 15.5873 6.6738C15.7237 6.81323 15.9506 6.81323 16.0866 6.6738L18.644 4.05813L18.644 12.6894C18.6444 12.8906 18.8007 13.0505 18.9975 13.0505C19.1942 13.0505 19.3556 12.8906 19.3556 12.6894L19.3556 4.05813L21.9083 6.6738C22.0494 6.81323 22.2767 6.81323 22.4127 6.6738C22.5538 6.52948 22.5538 6.29706 22.4127 6.15795L19.2498 2.92309C19.1135 2.77877 18.8865 2.77877 18.7505 2.92309L15.5873 6.15795Z" fill="#555555"/>
<path d="M22.4127 32.2258C22.5538 32.0864 22.5538 31.8543 22.4127 31.71C22.2763 31.5706 22.0494 31.5706 21.9134 31.71L19.356 34.3257L19.356 25.6944C19.3556 25.4932 19.1993 25.3333 19.0025 25.3333C18.8058 25.3333 18.6444 25.4932 18.6444 25.6944L18.6444 34.3257L16.0917 31.71C15.9506 31.5706 15.7233 31.5706 15.5873 31.71C15.4462 31.8543 15.4462 32.0867 15.5873 32.2258L18.7502 35.4607C18.8865 35.605 19.1135 35.605 19.2495 35.4607L22.4127 32.2258Z" fill="#555555"/>
<path d="M31.2933 15.705C31.1538 15.5638 30.9217 15.5638 30.7774 15.705C30.638 15.8413 30.638 16.0682 30.7774 16.2042L33.3931 18.7617H24.7618C24.5606 18.762 24.4007 18.9184 24.4007 19.1151C24.4007 19.3118 24.5606 19.4733 24.7618 19.4733H33.3931L30.7774 22.026C30.638 22.1671 30.638 22.3943 30.7774 22.5303C30.9217 22.6714 31.1541 22.6714 31.2933 22.5303L34.5281 19.3675C34.6724 19.2311 34.6724 19.0042 34.5281 18.8681L31.2933 15.705Z" fill="#555555"/>
<path d="M6.3431 22.9313C6.48253 23.0724 6.71463 23.0724 6.85895 22.9313C6.99838 22.7949 6.99838 22.568 6.85895 22.432L4.24328 19.8745L12.8746 19.8745C13.0758 19.8742 13.2357 19.7179 13.2357 19.5211C13.2357 19.3244 13.0758 19.163 12.8746 19.163L4.24328 19.163L6.85895 16.6103C6.99838 16.4692 6.99838 16.2419 6.85895 16.1059C6.71463 15.9648 6.48221 15.9648 6.3431 16.1059L3.10824 19.2688C2.96392 19.4051 2.96392 19.632 3.10824 19.7681L6.3431 22.9313Z" fill="#555555"/>
</svg>
