<svg width="28" height="28" viewBox="0 0 28 28" fill="none" xmlns="http://www.w3.org/2000/svg">
<g clip-path="url(#clip0_114_910)">
<path d="M27.1228 1.28269C27.5486 1.70846 27.5486 2.39875 27.1228 2.82451L2.31279 27.6345C1.88703 28.0603 1.19674 28.0603 0.77098 27.6345C0.34522 27.2088 0.34522 26.5185 0.77098 26.0927L25.581 1.28269C26.0068 0.85694 26.697 0.85694 27.1228 1.28269Z" fill="#97F50A"/>
<path d="M0.77098 1.28264C1.19674 0.856876 1.88703 0.856877 2.31279 1.28264L27.1228 26.0927C27.5486 26.5184 27.5486 27.2087 27.1228 27.6345C26.6971 28.0602 26.0068 28.0602 25.581 27.6345L0.77098 2.82445C0.34522 2.39869 0.34522 1.7084 0.77098 1.28264Z" fill="#97F50A"/>
</g>
<defs>
<clipPath id="clip0_114_910">
<rect width="28" height="28" fill="white"/>
</clipPath>
</defs>
</svg>
