<svg width="32" height="28" viewBox="0 0 32 28" fill="none" xmlns="http://www.w3.org/2000/svg">
<path d="M16 28C15.5444 28 15.1052 27.8377 14.7629 27.5428C13.4702 26.4311 12.2239 25.3864 11.1243 24.4648L11.1187 24.46C7.89478 21.758 5.11084 19.4246 3.17383 17.126C1.00854 14.5563 0 12.1199 0 9.45827C0 6.87226 0.901611 4.4865 2.53857 2.74016C4.19507 0.973176 6.46802 0 8.93945 0C10.7866 0 12.4783 0.574349 13.9673 1.70696C14.7188 2.27867 15.3999 2.97836 16 3.7945C16.6003 2.97836 17.2812 2.27867 18.033 1.70696C19.522 0.574349 21.2136 0 23.0608 0C25.532 0 27.8052 0.973176 29.4617 2.74016C31.0986 4.4865 32 6.87226 32 9.45827C32 12.1199 30.9917 14.5563 28.8264 17.1258C26.8894 19.4246 24.1057 21.7578 20.8823 24.4595C19.7808 25.3825 18.5325 26.4289 17.2368 27.5433C16.8948 27.8377 16.4553 28 16 28ZM8.93945 1.84358C6.9978 1.84358 5.21411 2.6057 3.9165 3.98971C2.59961 5.39461 1.87427 7.33664 1.87427 9.45827C1.87427 11.6968 2.72021 13.6989 4.61694 15.9497C6.4502 18.1254 9.177 20.4108 12.3342 23.057L12.3401 23.0618C13.4438 23.987 14.6951 25.0358 15.9973 26.1557C17.3074 25.0336 18.5605 23.9832 19.6665 23.0566C22.8235 20.4103 25.55 18.1254 27.3833 15.9497C29.2798 13.6989 30.1257 11.6968 30.1257 9.45827C30.1257 7.33664 29.4004 5.39461 28.0835 3.98971C26.7861 2.6057 25.0022 1.84358 23.0608 1.84358C21.6384 1.84358 20.3325 2.28827 19.1794 3.16516C18.1519 3.94697 17.436 4.93527 17.0164 5.6268C16.8005 5.9824 16.4207 6.19466 16 6.19466C15.5793 6.19466 15.1995 5.9824 14.9836 5.6268C14.5642 4.93527 13.8484 3.94697 12.8206 3.16516C11.6675 2.28827 10.3616 1.84358 8.93945 1.84358Z" fill="#FFBF1C"/>
</svg>
