<svg width="24" height="24" viewBox="0 0 24 24" fill="none" xmlns="http://www.w3.org/2000/svg">
<g clip-path="url(#clip0_174_909)">
<path d="M9.53526 15.799L1.65179 23.6727C0.516361 24.6302 -0.586946 23.2727 0.357306 22.3294L2.38975 20.2998L2.38754 20.2976L8.20927 14.4828C6.89841 12.8727 6.23384 10.9092 6.21967 8.94007C6.20329 6.66952 7.05431 4.39173 8.77589 2.64653L8.77967 2.63929C10.5047 0.897555 12.7734 0.0162953 15.0486 0.000232266C17.3223 -0.0161457 19.603 0.833618 21.3501 2.55299L21.3576 2.5574C23.1009 4.28023 23.9838 6.54637 23.9998 8.81819C24.0162 11.0891 23.1652 13.3672 21.4439 15.1114L21.4401 15.1187C19.7151 16.8607 17.4461 17.742 15.1712 17.7583C13.1759 17.7725 11.1759 17.1199 9.53526 15.799V15.799ZM20.0036 3.91236C18.631 2.56086 16.8401 1.89441 15.0565 1.90732C13.2732 1.91992 11.4934 2.61346 10.1403 3.98448L10.1365 3.99173C8.78345 5.36244 8.11636 7.15078 8.12927 8.93252C8.14187 10.7133 8.83636 12.4909 10.209 13.8424L10.2162 13.8465C11.5882 15.1974 13.3794 15.8639 15.1633 15.8513C16.9463 15.8383 18.7264 15.1445 20.0795 13.7738L20.0833 13.7662C21.436 12.3961 22.1031 10.6078 22.0902 8.82574C22.0779 7.04527 21.3831 5.26732 20.0108 3.91614L20.0036 3.91236V3.91236Z" fill="#555555"/>
</g>
<defs>
<clipPath id="clip0_174_909">
<rect width="24" height="24" fill="white"/>
</clipPath>
</defs>
</svg>
